<?xml version="1.0" encoding="utf-8"?>
<!-- Generator: Adobe Illustrator 17.0.0, SVG Export Plug-In . SVG Version: 6.00 Build 0)  -->
<!DOCTYPE svg PUBLIC "-//W3C//DTD SVG 1.1//EN" "http://www.w3.org/Graphics/SVG/1.1/DTD/svg11.dtd">
<svg version="1.1" id="Calque_1" xmlns="http://www.w3.org/2000/svg" xmlns:xlink="http://www.w3.org/1999/xlink" x="0px" y="0px"
	 width="158px" height="158px" viewBox="0 0 158 158" enable-background="new 0 0 158 158" xml:space="preserve">
<g>
	
		<path fill="#DA713B" stroke="#DA713B" stroke-width="3" stroke-linecap="round" stroke-linejoin="round" stroke-miterlimit="10" d="
		M25.023,25.352C39.944,10.469,58.006,3.021,79.198,3.021s39.248,7.447,54.175,22.331c14.921,14.889,22.388,32.899,22.388,54.036
		c0,21.137-7.466,39.153-22.388,54.036c-14.927,14.883-32.983,22.331-54.175,22.331s-39.253-7.447-54.175-22.331
		C10.096,118.541,2.635,100.525,2.635,79.388C2.635,58.251,10.096,40.241,25.023,25.352z M125.682,125.753
		c3.642-3.633,6.606-7.383,8.887-11.25l-9.229-5.455l2.734-4.773l9.229,5.455c4.785-9.088,7.29-18.292,7.52-27.615h-10.938v-5.455
		h10.938c-0.229-9.317-2.734-18.521-7.52-27.615l-9.229,5.455l-2.734-4.773l9.229-5.455c-2.28-3.862-5.245-7.612-8.887-11.25
		c-3.647-3.633-7.407-6.589-11.279-8.864l-5.469,9.205l-4.785-2.728l5.469-9.205c-9.116-4.773-18.345-7.271-27.686-7.5V24.84h-5.469
		V13.931c-9.346,0.229-18.575,2.727-27.686,7.5l5.469,9.205l-4.785,2.728l-5.469-9.205c-3.877,2.274-7.637,5.231-11.279,8.864
		c-3.647,3.639-6.612,7.389-8.887,11.25l9.229,5.455L30.321,54.5l-9.229-5.455c-4.785,9.093-7.295,18.298-7.52,27.615H24.51v5.455
		H13.573c0.224,9.322,2.734,18.527,7.52,27.615l9.229-5.455l2.734,4.773l-9.229,5.455c2.275,3.867,5.239,7.617,8.887,11.25
		c3.642,3.639,7.402,6.595,11.279,8.864l5.469-9.205l4.785,2.728l-5.469,9.205c9.111,4.773,18.339,7.277,27.686,7.5v-10.91h5.469
		v10.91c9.341-0.224,18.569-2.728,27.686-7.5l-5.469-9.205l4.785-2.728l5.469,9.205
		C118.275,132.348,122.035,129.392,125.682,125.753z M128.417,74.274v10.91h-39.99c-2.28,3.409-5.356,5.114-9.229,5.114
		c-3.194,0-5.811-1.023-7.861-3.068s-3.076-4.656-3.076-7.841c0-4.091,1.821-7.271,5.469-9.545V46.66h10.938v23.183
		c1.591,0.911,2.958,2.386,4.102,4.432H128.417z"/>
</g>
<g>
	<path fill="#D0C8C5" stroke="#D0C8C5" stroke-width="2" stroke-miterlimit="10" d="M53.853,114.424h-1.216
		c-1.408,0-2.112-0.565-2.112-1.696v-7.264c0-0.832-0.262-1.477-0.784-1.937c-0.523-0.458-1.264-0.688-2.224-0.688
		c-2.411,0-4.288,1.237-5.632,3.712v7.744c0,0.192-0.091,0.288-0.272,0.288c-0.182,0-0.272-0.096-0.272-0.288V90.968h-2.752
		c-0.192,0-0.288-0.09-0.288-0.272c0-0.181,0.096-0.272,0.288-0.272h3.04c0.17,0,0.256,0.096,0.256,0.288v14.88
		c1.387-2.197,3.264-3.296,5.632-3.296c1.088,0,1.952,0.277,2.592,0.832s0.96,1.333,0.96,2.336v7.264
		c0,0.769,0.522,1.152,1.568,1.152h1.216c0.17,0,0.256,0.091,0.256,0.271C54.109,114.333,54.023,114.424,53.853,114.424z"/>
	<path fill="#D0C8C5" stroke="#D0C8C5" stroke-width="2" stroke-miterlimit="10" d="M61.437,114.584
		c-1.813,0-3.232-0.581-4.256-1.744c-1.024-1.162-1.536-2.645-1.536-4.448c0-1.803,0.533-3.269,1.6-4.399
		c1.066-1.131,2.464-1.696,4.192-1.696s3.008,0.522,3.84,1.568c0.832,1.045,1.248,2.464,1.248,4.256
		c0,0.191-0.085,0.288-0.256,0.288h-10.08v0.031c0,1.707,0.475,3.067,1.424,4.08c0.949,1.014,2.224,1.521,3.824,1.521
		c2.048,0,3.552-0.769,4.512-2.305c0.106-0.148,0.235-0.176,0.384-0.079c0.149,0.096,0.181,0.219,0.096,0.367
		C65.361,113.731,63.697,114.584,61.437,114.584z M65.981,107.865c0-1.515-0.374-2.73-1.12-3.648
		c-0.747-0.917-1.877-1.376-3.392-1.376s-2.741,0.459-3.68,1.376c-0.939,0.918-1.472,2.134-1.6,3.648H65.981z"/>
	<path fill="#D0C8C5" stroke="#D0C8C5" stroke-width="2" stroke-miterlimit="10" d="M74.684,114.584
		c-1.131,0-2.005-0.288-2.624-0.864c-0.619-0.576-0.928-1.344-0.928-2.304v-7.265c0-0.768-0.523-1.151-1.568-1.151H68.38
		c-0.192,0-0.288-0.091-0.288-0.272c0-0.181,0.096-0.271,0.288-0.271h1.184c1.408,0,2.112,0.565,2.112,1.695v7.265
		c0,0.832,0.266,1.478,0.8,1.936c0.533,0.459,1.269,0.688,2.208,0.688c2.432,0,4.309-1.227,5.632-3.681v-7.775
		c0-0.192,0.091-0.288,0.272-0.288s0.272,0.096,0.272,0.288v10.144c0,0.769,0.522,1.152,1.568,1.152h1.216
		c0.17,0,0.256,0.091,0.256,0.271c0,0.182-0.085,0.272-0.256,0.272h-1.216c-1.408,0-2.112-0.565-2.112-1.696v-1.376
		C78.908,113.507,77.031,114.584,74.684,114.584z"/>
	<path fill="#D0C8C5" stroke="#D0C8C5" stroke-width="2" stroke-miterlimit="10" d="M87.516,114.296
		c0,0.171-0.091,0.256-0.272,0.256c-0.182,0-0.272-0.085-0.272-0.256v-10.176c0-0.747-0.523-1.12-1.568-1.12H84.22
		c-0.192,0-0.288-0.091-0.288-0.272c0-0.181,0.096-0.271,0.288-0.271h1.248c1.365,0,2.048,0.555,2.048,1.664v1.504
		c0.661-1.109,1.354-1.941,2.08-2.496s1.579-0.832,2.56-0.832c0.981,0,1.749,0.171,2.304,0.512c0.106,0.064,0.16,0.149,0.16,0.256
		v2.849c0,0.171-0.091,0.256-0.272,0.256c-0.182,0-0.272-0.085-0.272-0.256v-2.721c-0.512-0.234-1.077-0.352-1.696-0.352
		c-1.045,0-1.947,0.299-2.704,0.896c-0.757,0.598-1.478,1.568-2.16,2.912V114.296z"/>
	<path fill="#D0C8C5" stroke="#D0C8C5" stroke-width="2" stroke-miterlimit="10" d="M102.684,114.584
		c-1.813,0-3.232-0.581-4.256-1.744c-1.024-1.162-1.536-2.645-1.536-4.448c0-1.803,0.533-3.269,1.6-4.399
		c1.066-1.131,2.464-1.696,4.192-1.696s3.008,0.522,3.84,1.568c0.832,1.045,1.248,2.464,1.248,4.256
		c0,0.191-0.085,0.288-0.256,0.288h-10.08v0.031c0,1.707,0.475,3.067,1.424,4.08c0.949,1.014,2.224,1.521,3.824,1.521
		c2.048,0,3.552-0.769,4.512-2.305c0.106-0.148,0.235-0.176,0.384-0.079c0.149,0.096,0.181,0.219,0.096,0.367
		C106.608,113.731,104.944,114.584,102.684,114.584z M107.228,107.865c0-1.515-0.374-2.73-1.12-3.648
		c-0.747-0.917-1.877-1.376-3.392-1.376s-2.741,0.459-3.68,1.376c-0.939,0.918-1.472,2.134-1.6,3.648H107.228z"/>
	<path fill="#D0C8C5" stroke="#D0C8C5" stroke-width="2" stroke-miterlimit="10" d="M111.163,113.752
		c-0.149-0.064-0.224-0.171-0.224-0.32v-2.784c0-0.17,0.091-0.256,0.272-0.256s0.272,0.086,0.272,0.256v2.624
		c0.981,0.513,2.336,0.769,4.064,0.769c3.008,0,4.512-0.896,4.512-2.688c0-0.704-0.277-1.301-0.832-1.792
		c-0.384-0.341-1.131-0.64-2.24-0.896c-0.235-0.043-0.955-0.197-2.16-0.464c-1.206-0.267-2.112-0.613-2.72-1.04
		c-0.608-0.427-0.912-1.045-0.912-1.856c0-2.005,1.546-3.008,4.64-3.008c1.664,0,3.04,0.288,4.128,0.864
		c0.171,0.085,0.256,0.182,0.256,0.288v2.72c0,0.171-0.091,0.256-0.272,0.256c-0.182,0-0.272-0.085-0.272-0.256v-2.561
		c-0.981-0.512-2.262-0.768-3.84-0.768c-2.731,0-4.096,0.821-4.096,2.464c0,0.576,0.149,0.981,0.448,1.216
		c0.299,0.235,0.528,0.406,0.688,0.513c0.16,0.106,0.416,0.213,0.768,0.319c0.352,0.107,0.592,0.182,0.72,0.225
		c0.811,0.191,1.397,0.319,1.76,0.384c0.363,0.063,0.688,0.128,0.976,0.191c0.288,0.064,0.699,0.192,1.232,0.385
		c0.533,0.191,0.938,0.395,1.216,0.607c0.704,0.576,1.056,1.248,1.056,2.017c0,0.768-0.166,1.376-0.496,1.823
		c-0.331,0.448-0.763,0.779-1.296,0.992c-1.003,0.405-2.224,0.608-3.664,0.608S112.379,114.307,111.163,113.752z"/>
</g>
</svg>
