<?xml version="1.0" standalone="no"?>
<!DOCTYPE svg PUBLIC "-//W3C//DTD SVG 20010904//EN"
 "http://www.w3.org/TR/2001/REC-SVG-20010904/DTD/svg10.dtd">
<svg version="1.0" xmlns="http://www.w3.org/2000/svg"
 width="700.000000pt" height="700.000000pt" viewBox="0 0 700.000000 700.000000"
 preserveAspectRatio="xMidYMid meet">
<metadata>
Created by potrace 1.11, written by Peter Selinger 2001-2013
</metadata>
<g transform="translate(0.000000,700.000000) scale(0.100000,-0.100000)"
fill="#000000" stroke="none">
<path d="M3318 6745 c-2 -2 -46 -5 -98 -9 -52 -3 -129 -10 -170 -16 -41 -5
-93 -13 -115 -16 -225 -31 -570 -132 -790 -232 -115 -53 -306 -156 -405 -220
-100 -64 -290 -205 -357 -265 -155 -138 -298 -280 -393 -392 -24 -27 -46 -52
-49 -55 -33 -27 -219 -294 -293 -420 -54 -92 -158 -292 -158 -304 0 -3 -11
-29 -24 -58 -70 -153 -163 -457 -190 -623 -22 -133 -36 -231 -41 -290 -3 -38
-8 -95 -11 -125 -11 -124 -4 -518 11 -610 2 -14 7 -47 10 -75 4 -27 11 -79 17
-115 6 -36 11 -72 13 -80 20 -144 124 -487 195 -645 174 -386 381 -690 676
-991 190 -193 406 -370 604 -494 47 -29 101 -63 121 -76 75 -47 414 -205 449
-209 3 0 10 -3 15 -6 50 -30 418 -129 535 -145 19 -2 60 -8 90 -14 164 -27
271 -34 515 -35 197 0 417 10 434 19 3 2 34 7 69 10 119 13 340 61 512 113
850 256 1647 977 2013 1823 89 207 179 505 202 674 3 15 6 35 9 45 3 9 7 39
11 66 3 28 8 66 10 85 27 197 27 689 1 840 -3 14 -7 45 -10 70 -44 394 -223
887 -454 1245 -141 217 -267 371 -481 585 -291 291 -595 504 -949 665 -154 70
-388 153 -514 181 -10 2 -26 6 -35 8 -61 15 -113 26 -143 31 -19 3 -42 8 -50
10 -8 2 -35 6 -60 9 -25 3 -54 8 -65 10 -34 6 -117 16 -185 22 -69 6 -467 13
-472 9z m-8 -777 c0 -106 3 -202 6 -213 10 -40 40 -48 179 -47 181 2 171 -12
170 251 l0 203 75 -6 c41 -3 84 -8 95 -10 11 -2 45 -7 75 -11 91 -11 333 -73
447 -114 115 -41 292 -117 307 -131 4 -4 -36 -81 -89 -171 -53 -90 -99 -173
-101 -185 -6 -32 21 -57 126 -117 118 -68 135 -73 164 -53 13 8 68 89 122 180
l98 166 34 -21 c126 -74 385 -306 519 -464 69 -82 188 -244 182 -249 -2 -2
-74 -44 -159 -94 -169 -99 -199 -123 -197 -158 3 -36 119 -231 148 -248 25
-15 29 -14 70 7 56 29 115 63 221 127 45 27 86 50 91 50 11 0 73 -132 123
-264 58 -156 108 -341 130 -486 3 -19 7 -46 10 -60 2 -14 7 -62 10 -107 l7
-83 -207 0 c-193 0 -207 -1 -226 -20 -23 -23 -22 -14 -21 -160 2 -144 1 -137
22 -156 16 -14 49 -17 225 -17 l206 -1 -6 -86 c-3 -47 -8 -96 -11 -110 -2 -13
-7 -42 -11 -65 -3 -22 -10 -60 -16 -85 -5 -25 -11 -52 -13 -60 -19 -85 -30
-125 -64 -227 -37 -112 -95 -254 -137 -335 l-19 -37 -157 94 c-87 51 -167 97
-179 100 -45 15 -64 -2 -126 -112 -70 -124 -78 -145 -64 -171 6 -11 70 -55
143 -98 73 -42 150 -88 171 -101 l37 -23 -17 -28 c-29 -45 -125 -175 -158
-212 -85 -98 -292 -297 -380 -365 -91 -71 -168 -125 -178 -125 -3 0 -48 74
-102 165 -54 91 -103 169 -110 175 -27 22 -64 12 -166 -44 -100 -56 -131 -83
-136 -116 -1 -9 43 -92 97 -184 55 -92 100 -170 100 -172 0 -6 -90 -50 -182
-88 -164 -67 -384 -132 -528 -155 -36 -6 -76 -13 -90 -16 -14 -3 -65 -8 -115
-11 l-90 -6 0 207 0 207 -25 20 c-22 18 -37 19 -162 16 -123 -3 -139 -5 -152
-23 -13 -16 -15 -58 -16 -224 l0 -204 -87 7 c-98 7 -236 29 -332 52 -36 9 -72
17 -80 19 -75 15 -398 137 -493 186 -15 8 -3 31 83 176 93 156 111 201 91 228
-7 11 -88 65 -96 65 -3 0 -31 15 -63 34 -63 37 -87 44 -118 33 -12 -4 -59 -73
-115 -168 -52 -88 -98 -165 -102 -172 -5 -8 -31 5 -80 38 -40 27 -75 52 -78
55 -3 3 -32 28 -65 54 -135 108 -306 284 -416 428 -61 80 -104 147 -98 152 2
2 72 43 154 91 83 49 160 97 171 107 29 26 35 62 14 95 -9 15 -31 55 -50 88
-52 96 -77 125 -108 125 -16 0 -95 -41 -195 -100 l-168 -99 -39 82 c-73 155
-136 335 -174 497 -14 60 -17 77 -31 149 -9 47 -26 183 -29 227 -2 33 1 45 13
48 9 2 95 3 191 2 96 -1 186 2 199 6 45 16 50 35 51 169 0 113 -2 129 -21 152
l-20 27 -207 2 -207 3 1 30 c3 48 14 158 19 185 3 14 7 39 9 55 10 73 61 269
97 377 47 140 137 348 151 348 5 0 81 -42 168 -94 162 -97 181 -105 215 -93
20 7 138 202 148 246 9 35 -26 64 -201 165 -83 49 -152 92 -152 96 0 13 109
161 180 245 139 164 347 351 495 447 l59 39 19 -38 c11 -21 25 -45 32 -53 7
-8 21 -31 32 -50 116 -214 140 -237 214 -199 63 31 182 101 197 116 27 26 11
69 -83 226 -52 87 -95 163 -95 168 0 30 368 171 575 220 98 23 302 54 378 58
l47 2 0 -193z"/>
<path d="M3233 4910 c-12 -5 -25 -19 -29 -32 -4 -13 -8 -232 -9 -488 l0 -465
-70 -70 c-115 -115 -157 -219 -154 -380 3 -153 50 -269 150 -366 93 -91 196
-134 340 -142 150 -8 271 37 383 143 l71 68 821 0 c857 0 856 0 872 42 4 10 7
128 6 261 0 240 0 242 -23 260 -16 13 -40 19 -80 20 -31 0 -398 0 -815 -1
l-759 0 -78 82 -78 83 -3 482 c-3 465 -4 483 -23 496 -15 12 -67 15 -260 15
-132 0 -250 -4 -262 -8z"/>
<path d="M1785 3062 c-49 -5 -70 -48 -42 -86 9 -13 28 -18 63 -19 l49 -2 5
-483 5 -484 24 -13 c18 -9 31 -10 48 -2 28 12 25 -2 29 182 1 83 3 160 3 172
1 29 80 106 122 119 48 15 117 10 136 -9 14 -14 17 -45 18 -206 1 -186 2 -191
25 -216 28 -30 78 -45 137 -41 56 3 76 21 69 60 -8 38 -20 46 -78 46 l-48 0 0
175 c0 197 -7 227 -61 268 -46 33 -73 41 -143 39 -51 -2 -117 -24 -176 -59 -3
-2 -5 118 -5 267 0 178 -4 273 -11 280 -10 10 -112 18 -169 12z"/>
<path d="M2677 2559 c-96 -22 -182 -105 -205 -197 -15 -57 -6 -186 15 -232 67
-148 249 -206 400 -128 74 37 126 115 100 149 -27 36 -54 33 -101 -13 -51 -50
-90 -66 -159 -62 -45 3 -84 20 -115 50 -13 13 -42 76 -42 91 0 4 90 8 201 8
236 1 232 -1 223 98 -9 110 -63 193 -143 222 -54 19 -126 24 -174 14z m152
-120 c19 -12 61 -82 61 -102 0 -4 -72 -7 -161 -7 l-160 0 22 40 c24 42 55 68
98 80 37 11 114 5 140 -11z"/>
<path d="M3522 2559 c-27 -10 -31 -40 -30 -215 1 -130 0 -144 -21 -178 -25
-41 -89 -82 -139 -89 -37 -6 -98 8 -108 25 -4 6 -8 97 -9 202 l-2 190 -37 32
c-33 29 -41 31 -105 30 -38 0 -73 -5 -77 -9 -10 -10 -11 -74 -1 -83 4 -4 32
-9 61 -12 l55 -4 3 -187 c3 -176 4 -188 26 -219 34 -47 89 -72 161 -72 64 0
160 30 182 56 11 13 16 11 44 -16 27 -26 41 -32 96 -36 78 -5 102 8 102 55 0
41 -15 51 -75 51 l-48 0 0 218 c0 119 -3 227 -6 239 -6 23 -40 34 -72 22z"/>
<path d="M3995 2560 c-42 -6 -79 -23 -108 -48 -16 -14 -19 -14 -32 5 -8 12
-28 25 -44 31 -38 13 -137 10 -152 -5 -12 -12 -15 -70 -5 -81 3 -3 31 -7 61
-10 l55 -4 1 -37 c0 -20 0 -116 0 -213 -1 -202 5 -228 48 -228 55 0 59 13 60
197 1 167 1 168 28 207 38 54 71 75 121 80 l42 5 0 -54 c0 -59 16 -85 53 -85
43 0 50 14 52 102 2 51 -2 90 -9 99 -24 32 -103 50 -171 39z"/>
<path d="M4404 2555 c-132 -30 -213 -137 -214 -282 0 -124 49 -216 145 -274
34 -20 55 -24 130 -26 78 -1 97 2 143 24 51 25 114 89 119 122 3 23 -18 47
-48 54 -21 5 -32 -1 -66 -37 -85 -90 -234 -81 -290 19 -40 71 -42 70 179 70
147 0 201 4 210 13 18 18 15 106 -5 167 -42 124 -161 183 -303 150z m154 -116
c23 -14 42 -43 53 -81 l8 -28 -161 0 -160 0 25 43 c33 58 91 87 162 82 30 -2
62 -9 73 -16z"/>
<path d="M4951 2558 c-102 -15 -161 -73 -161 -157 0 -93 49 -132 220 -174 116
-29 136 -39 145 -74 5 -22 2 -32 -20 -50 -14 -13 -40 -24 -58 -25 -63 -3 -126
0 -159 6 -33 6 -34 7 -35 62 0 31 -6 61 -12 67 -14 14 -69 13 -83 -1 -6 -6
-11 -47 -10 -97 0 -100 3 -104 95 -130 65 -18 189 -21 230 -6 15 6 27 8 27 6
0 -11 76 34 97 57 25 27 45 103 36 138 -18 74 -79 114 -228 150 -124 29 -150
45 -136 83 12 31 68 46 156 41 43 -2 80 -6 82 -8 2 -2 5 -29 6 -60 3 -59 14
-76 50 -76 10 0 27 5 38 10 16 9 19 22 19 94 0 96 -6 105 -85 130 -61 19 -141
25 -214 14z"/>
</g>
</svg>
